<svg width="1335" height="315" viewBox="0 0 1335 315" fill="none" xmlns="http://www.w3.org/2000/svg">
    <rect width="1336" height="315" fill="#D9D9D9"/>
    <path d="M605 154.875C605 146.257 612.007 139.25 620.625 139.25C620.747 139.25 620.894 139.25 621.016 139.25C622.822 130.339 630.708 123.625 640.156 123.625C643.818 123.625 647.236 124.626 650.142 126.359C653.389 120.109 659.956 115.812 667.5 115.812C675.044 115.812 681.611 120.109 684.858 126.359C687.764 124.626 691.182 123.625 694.844 123.625C704.292 123.625 712.178 130.339 713.984 139.25C714.106 139.25 714.253 139.25 714.375 139.25C722.993 139.25 730 146.257 730 154.875C730 157.731 729.243 160.393 727.9 162.688H607.1C605.757 160.393 605 157.731 605 154.875ZM605 177.189C605 173.503 608.003 170.5 611.689 170.5H723.311C726.997 170.5 730 173.503 730 177.189C730 194.401 719.16 209.099 703.95 214.812L703.511 218.352C703.022 222.258 699.702 225.188 695.747 225.188H639.229C635.298 225.188 631.953 222.258 631.465 218.352L631.025 214.836C615.84 209.099 605 194.401 605 177.189Z" fill="#EEEEEE"/>
</svg>
